<svg xmlns="http://www.w3.org/2000/svg" width="860.4" height="608.8" data-name="Layer 1"><path fill="#f2f2f2" d="m51 514-27-23a111 111 0 0 1 22-49c1 32 34 54 45 84a67 67 0 0 1-5 58l-3 24a112 112 0 0 1-58-74 109 109 0 0 1-2-27l28 7ZM790 556l19-29a111 111 0 0 1 51 14c-31 6-48 41-77 57a67 67 0 0 1-58 3h-24a112 112 0 0 1 66-67 109 109 0 0 1 26-6l-3 28ZM207 461l-102-6 14-99 90 97-2 8z"/><path fill="#f2f2f2" d="m194 562-104-7 14-90 91 90-1 7z"/><path fill="#3f3d56" d="M775 144V53a53 53 0 0 0-53-53H529a53 53 0 0 0-53 53v502a53 53 0 0 0 53 53h193a53 53 0 0 0 53-53V209a3 3 0 0 0 4-3v-58a3 3 0 0 0-4-4Z"/><path fill="#fff" d="M764 53v501a40 40 0 0 1-39 40 3 3 0 0 1-1 0H530a40 40 0 0 1-40-40V53a40 40 0 0 1 40-39h23a19 19 0 0 0 18 26h111a19 19 0 0 0 17-26h25a40 40 0 0 1 40 39Z"/><path fill="#3f3d56" d="M721 582v15a3 3 0 0 1-1 0H525a40 40 0 0 1-38-30 37 37 0 0 1-1-4 39 39 0 0 1 0-6V334a247 247 0 0 1 44 7l5 1 4 1a246 246 0 0 1 83 41l5 3 7 6a62 62 0 0 1 5 4 248 248 0 0 1 62 87l1 3 1 1v1a247 247 0 0 1 18 93ZM477 196a5 5 0 0 1-5-5v-31a5 5 0 1 1 9 0v31a5 5 0 0 1-4 5ZM476 136a5 5 0 0 1-5-4v-31a5 5 0 0 1 9 0v31a5 5 0 0 1-4 4Z"/><path fill="#fff" d="M596 19a5 5 0 0 1 4-5h31a5 5 0 1 1 0 9h-31a5 5 0 0 1-4-4Z"/><path fill="#3f3d56" d="M477 248a5 5 0 0 1-5-5v-30a5 5 0 1 1 9 0v30a5 5 0 0 1-4 5Z"/><circle cx="647.9" cy="18.9" r="4.5" fill="#fff"/><path d="M631 559a71 71 0 0 1 71-71h1l-1-1-1-3h-70v-90h4l-1-1-7-6v3h-88v-47l-4-1v48h-45v4h45v90h-45v4h45v71h-44a37 37 0 0 0 0 5h44v30h4v-30h88v30h4v-30h77v-5Zm-4 0h-88v-71h88Zm0-75h-88v-2a88 88 0 0 1 88-88Z" opacity=".2"/><path fill="#e5e5e5" d="m239 233-49 373v3h-2v-3l49-373h2zM138 233 84 606v3h-2v-3l54-373h2z"/><path fill="#3f3d56" d="M314 609h-2l-1-3-103-384 2-1 104 385v3zM308 221h1l110 386h-2z"/><path fill="#3f3d56" d="m299 557 99-21v2l-99 21zM282 497l99-21v2l-99 21zM266 435l98-19v2l-98 19zM251 375l96-19v2l-96 19zM136 233a37 37 0 1 1 74-11h-2a35 35 0 1 0-70 11ZM236 234a37 37 0 1 1 74-13l-2 1a35 35 0 0 0-70 11Z"/><path fill="#ffb6b6" d="m339 315-19 47h63l-7-47h-37zM355 530l9 1 10-35-14-2-5 36z"/><path fill="#2f2e41" d="m353 525 15 1-1 7 12 11a4 4 0 0 1-3 7l-17-3-2-6-3 6-6-1Z"/><path fill="#ffb6b6" d="m247 504 8 6 25-26-10-9-23 29z"/><path fill="#2f2e41" d="m248 499 13 8-4 5 5 17a4 4 0 0 1-6 4l-14-11 1-7-5 4-5-4ZM324 351l-7 8-16 71-37 51 12 12 48-46 23-50 12 46-3 61 20-1c5-71 14-144 4-164a64 64 0 0 1-48 15Z"/><path fill="#8263ff" d="m357 240 15 17a25 25 0 0 1 7 14 25 25 0 0 1 0 7l-4 24 6 38-25 16c-7 5-38 5-38 3 0-6 6-22 7-43 2-25 0-54 5-69 7-17 27-7 27-7Z"/><path fill="#ffb6b6" d="M303 350a8 8 0 0 0-4-12l1-19-12-3v27a8 8 0 0 0 15 7Z"/><path fill="#8263ff" d="M287 274a7 7 0 0 1 4-4c6-3 33-24 34-24l8-4s8 0 12 5a9 9 0 0 1 3 7c-2 11-39 35-43 35l-4 31 2 12h-16l-4-17c-1-1-2-26 4-41Z"/><ellipse cx="505.4" cy="400.7" fill="#8263ff" rx="15.5" ry="13" transform="rotate(-82 336 426)"/><path fill="#3f3d56" d="m234 312-1-2 93-21v2l-92 21z"/><rect width="63.4" height="27.8" x="595.3" y="171.1" fill="#e6e6e6" rx="13.9"/><rect width="195.6" height="27.8" x="529.2" y="226.7" fill="#e6e6e6" rx="13.9"/><rect width="195.6" height="27.8" x="457.2" y="268.4" fill="#8263ff" rx="13.9"/><path fill="#cacaca" d="M860 607a1 1 0 0 1-1 2H1a1 1 0 0 1 0-3h858a1 1 0 0 1 1 1Z"/><path fill="#ffb6b6" d="M373 222a22 22 0 1 1 4-18v1a22 22 0 0 1-4 17Z"/><path fill="#2f2e41" d="m379 205-1-4a7 7 0 0 1-1 4l-25-4 2-15c8-2 15-3 19 3a15 15 0 0 1 13 17Z"/><path fill="#2f2e41" d="M364 245a29 29 0 0 0-1-7l-1-6a18 18 0 0 1-3 11c-4-4-1-10-7-11-13-2-25-16-23-30s10-23 23-21c14 2 24 10 23 24-18 1-8 40-11 40Z"/><circle cx="333.8" cy="184.5" r="9.1" fill="#2f2e41"/><path fill="#2f2e41" d="M345 177a12 12 0 0 0-10-7 9 9 0 0 1 3 15l2-1a3 3 0 0 0 3 0 4 4 0 0 0 2-3 8 8 0 0 0 0-4Z"/><path fill="#ffb6b6" d="M461 273a8 8 0 0 0-12 5l-19 2-2 12 27-3a8 8 0 0 0 6-16Z"/><path fill="#8263ff" d="M387 299a7 7 0 0 1-5-4c-3-5-28-29-28-30l-5-7c0-1-1-9 3-13a9 9 0 0 1 7-3c11-1 39 34 39 38l33-1 12-3 2 15-17 7c-1 1-25 5-41 1Z"/></svg>