<svg xmlns="http://www.w3.org/2000/svg" width="833.2" height="633.1" data-name="Layer 1"><path fill="#f2f2f2" d="M771 575c-27 21-61 42-93 52a132 132 0 0 1-29 6 88 88 0 0 1-28-2 266 266 0 0 1-87-41l-33-21-5-3-8-5h-1l-16-9-2-1a338 338 0 0 0-31-16l-21-8-8-2a172 172 0 0 0-26-5 137 137 0 0 0-35 0l-2 1c-32 5-61 22-92 26h-5a126 126 0 0 1-27 0c-26-4-51-14-73-27-53-31-96-79-121-134a297 297 0 0 1-12-29 278 278 0 0 1-16-85C-2 172 55 71 144 26c90-45 208-30 280 39 44 43 69 100 102 151s80 100 140 108c31 3 63-4 93 6 16 5 30 15 41 28a127 127 0 0 1 19 29 142 142 0 0 1 9 24l1 4c15 60-9 123-58 160Z"/><rect width="145" height="51" x="159.7" y="466.8" fill="#3f3d56" rx="25.5"/><path fill="#3f3d56" d="M251 505v42a126 126 0 0 1-29 0v-42Z"/><path fill="#2f2e41" d="m348 520-2 1c-32 5-61 22-92 26h-5a417 417 0 0 1-34-38c-9-12-17-24-22-36l-5-30-1-11c2-14 14-12 17-26a77 77 0 0 1 10-7l2-1 38-26 15 14 22 22 24 23-20 21 37 46 16 22Z"/><path fill="#3f3d56" d="M678 505v122a132 132 0 0 1-29 6V505Z"/><rect width="145" height="51" x="595.7" y="494.8" fill="#3f3d56" rx="25.5"/><path fill="#ffb6b6" d="m487 561-16-9-2-1 4-2 9-4Z"/><path fill="#2f2e41" d="m501 569-5-3-8-5h-1l-16-9-2-1a338 338 0 0 0-31-16l-21-8-6-9-25-42-6-10s-18 6-45 11a579 579 0 0 1-87 10c-16 0-30-1-43-5-4-4-17-9-27-14l-8-6c-10-11-2-19-10-30a78 78 0 0 1 0-12l1-2 2-47 21-2 30-4 34-5 3 29 59-1c53 1 124 6 134 29l3 6 6 16a1966 1966 0 0 1 47 128l1 2Z"/><path fill="#a0616a" d="m314 289-64-55 42-42 29 48 108 21a21 21 0 1 1-3 31Z"/><path fill="#3f3d56" d="M194 163c-8 24 63 81 63 81 1-6 41 44 43 40 8-13 16-45 25-49 5-2-24-34-24-34l-34-45a53 53 0 0 0-48-21s-18 4-25 28Z"/><circle cx="224.8" cy="66" r="43.3" fill="#a0616a"/><path fill="#3f3d56" d="M246 138c10 6 15 16 19 26a248 248 0 0 1 10 59l4 60 42 128c-37 31-173 7-173 7s-5-1 0-5 8-1 4-5-2 0 0-4 0-1-2-3 11-13 11-13l-11-74-14-148c17-21 51-33 51-33l8-16 44 3Z"/><path fill="#2f2e41" d="M261 43a20 20 0 0 1 7 10 141 141 0 0 0 0-20c-1-4-4-5-8-6-3-2-7-3-8-7-14-14-37-13-54-8-8 2-14 6-14 8h-1c-6 4-8 14-8 23 1 16 6 34 9 36 5-4 11 0 13 2a45 45 0 0 1 41-38 71 71 0 0 0 9-2 20 20 0 0 1 5 0 14 14 0 0 1 9 2Z"/><path fill="#8263ff" d="m206 354-13-7a4 4 0 0 1 3-6l13 6a4 4 0 0 1-3 7Z"/><path fill="#a0616a" d="m161 336-21-82 58-11-3 56 76 79a21 21 0 1 1-20 24Z"/><path fill="#3f3d56" d="M134 163c-20 16 5 103 5 103 4-4 9 60 13 58 14-7 39-28 49-26 5 1 0-42 0-42l-4-57a53 53 0 0 0-26-44s-18-7-37 8ZM819 387l-791-1a297 297 0 0 1-12-29l784 1a127 127 0 0 1 19 29Z"/><path fill="#ffb6b6" d="m567 597-12 6-21-13 25-11Z"/><path fill="#2f2e41" d="m751 459-13 16-12 15-6 5-10 11a555 555 0 0 1-61 15 104 104 0 0 1-15 1 291 291 0 0 1-38-2 534 534 0 0 1-86-16l-9-3-15 25-8 13-5 10-2 3-2-1a338 338 0 0 0-31-16l-21-8-8-2 2-7 5-13a1716 1716 0 0 1 22-53c1-4 4-7 9-10a52 52 0 0 1 6-3 183 183 0 0 1 56-13 657 657 0 0 1 75-3h28l18 1 3-20v-4l1-4v-1h7l61-1 33-1-5 23-9 37c1 6 30 1 30 6Z"/><path fill="#2f2e41" d="m574 593-7 4-12 6-21-13-33-21-5-3a1307 1307 0 0 1-14-21l-4-6-22-36 19-8 34-17 6-2 17 33 15 30 3 7Z"/><path fill="#ffb8b8" d="m580 432 87-84 24-69-35-15c-19 17-39 72-39 72l-60 77h-1a17 17 0 1 0 24 19Z"/><path fill="#8263ff" d="m645 271 46 15c17-3 31-31 40-53a32 32 0 0 0-16-40 32 32 0 0 0-34 4l-23 19Z"/><path fill="#8263ff" d="M751 460c14-19-5-66-8-72l13-4-2-25-1-11 10-10 7-51 9-33a73 73 0 0 0-19-71l-19-19-22-35-38-1-14 24a55 55 0 0 0-44 55l1 64-13 80-1 15-13 14 3 14-10 4-5 20c-2 2-14 18-14 22l1 2c8 6 52 18 72 11 22-8 105 7 106 7Z"/><circle cx="696.5" cy="66.9" r="50.1" fill="#ffb8b8"/><path fill="#2f2e41" d="M690 118a136 136 0 0 0 24-2c7-2 24-14 29-21l7-21a61 61 0 0 0-11-48 19 19 0 0 0-7-7h-1a24 24 0 0 1-12-8 20 20 0 0 0-2-2 29 29 0 0 0-12-6c-8-2-18 0-32 6-6 3-14 2-19 1a2 2 0 0 0-2 0 13 13 0 0 1-9 4c-2 0-4 3-7 6l-2 3v-1l-1 1a16 16 0 0 0 7 26 31 31 0 0 0 7 1h4a24 24 0 0 1 17 16 6 6 0 0 0 10 3 10 10 0 0 1 9-2 7 7 0 0 1 3 4 9 9 0 0 0 4 4c5 2 5 14 3 24-1 9-5 16-8 16l-3 1v1a10 10 0 0 0 4 1Z"/><path fill="#ffb8b8" d="m658 256-19-38c-28 2-84 34-84 34l-105 22a19 19 0 1 0 5 33l134-10Z"/><path fill="#8263ff" d="m650 262 51-37 8-32a35 35 0 0 0-10-35 35 35 0 0 0-48 1c-19 19-40 45-36 64Z"/><path fill="#fff" d="M453 363h135v18H453zM108 363h135v18H108z"/><path fill="#3f3d56" d="M258 276v86a4 4 0 0 0 5 4h127a4 4 0 0 0 4-4v-86a4 4 0 0 0-4-4H263a4 4 0 0 0-5 4Z"/><path fill="#8263ff" d="M261 277v84a2 2 0 0 0 3 2h124a2 2 0 0 0 3-2v-84a2 2 0 0 0-3-2H264a2 2 0 0 0-3 2Z"/><path fill="#2f2e41" d="M256 379a2 2 0 0 0 2 1h136a3 3 0 0 0 2-3l-2-10a3 3 0 0 0-2-2H260a2 2 0 0 0-1 0 3 3 0 0 0-2 2l-2 10a3 3 0 0 0 1 2Z"/><rect width="4.2" height="2.5" x="569.8" y="499.8" fill="#3f3d56" rx=".5" transform="rotate(-180 480 434)"/><rect width="4.2" height="2.5" x="561.5" y="499.8" fill="#3f3d56" rx=".5" transform="rotate(-180 472 434)"/><rect width="4.2" height="2.5" x="553.1" y="499.8" fill="#3f3d56" rx=".5" transform="rotate(-180 463 434)"/><rect width="4.2" height="2.5" x="544.7" y="499.8" fill="#3f3d56" rx=".5" transform="rotate(-180 455 434)"/><rect width="4.2" height="2.5" x="536.3" y="499.8" fill="#3f3d56" rx=".5" transform="rotate(-180 447 434)"/><rect width="4.2" height="2.5" x="527.9" y="499.8" fill="#3f3d56" rx=".5" transform="rotate(-180 438 434)"/><rect width="4.2" height="2.5" x="519.6" y="499.8" fill="#3f3d56" rx=".5" transform="rotate(-180 430 434)"/><rect width="4.2" height="2.5" x="511.2" y="499.8" fill="#3f3d56" rx=".5" transform="rotate(-180 422 434)"/><rect width="4.2" height="2.5" x="502.8" y="499.8" fill="#3f3d56" rx=".5" transform="rotate(-180 413 434)"/><rect width="4.2" height="2.5" x="494.4" y="499.8" fill="#3f3d56" rx=".5" transform="rotate(-180 405 434)"/><rect width="4.2" height="2.5" x="486.1" y="499.8" fill="#3f3d56" rx=".5" transform="rotate(-180 396 434)"/><rect width="4.2" height="2.5" x="477.7" y="499.8" fill="#3f3d56" rx=".5" transform="rotate(-180 388 434)"/><rect width="4.2" height="2.5" x="469.3" y="499.8" fill="#3f3d56" rx=".5" transform="rotate(-180 380 434)"/><rect width="4.2" height="2.5" x="460.9" y="499.8" fill="#3f3d56" rx=".5" transform="rotate(-180 371 434)"/><rect width="4.2" height="2.5" x="452.6" y="499.8" fill="#3f3d56" rx=".5" transform="rotate(-180 363 434)"/><rect width="4.2" height="2.5" x="444.2" y="499.8" fill="#3f3d56" rx=".5" transform="rotate(-180 355 434)"/><rect width="4.2" height="2.5" x="569.9" y="504" fill="#3f3d56" rx=".5" transform="rotate(-180 480 439)"/><rect width="4.2" height="2.5" x="561.6" y="504" fill="#3f3d56" rx=".5" transform="rotate(-180 472 439)"/><rect width="4.2" height="2.5" x="553.2" y="504" fill="#3f3d56" rx=".5" transform="rotate(-180 464 439)"/><rect width="4.2" height="2.5" x="544.8" y="504" fill="#3f3d56" rx=".5" transform="rotate(-180 455 439)"/><rect width="4.2" height="2.5" x="536.4" y="504" fill="#3f3d56" rx=".5" transform="rotate(-180 447 439)"/><rect width="4.2" height="2.5" x="528" y="504" fill="#3f3d56" rx=".5" transform="rotate(-180 438 439)"/><rect width="4.2" height="2.5" x="519.7" y="504" fill="#3f3d56" rx=".5" transform="rotate(-180 430 439)"/><rect width="4.2" height="2.5" x="511.3" y="504" fill="#3f3d56" rx=".5" transform="rotate(-180 422 439)"/><rect width="4.2" height="2.5" x="502.9" y="504" fill="#3f3d56" rx=".5" transform="rotate(-180 413 439)"/><rect width="4.2" height="2.5" x="494.5" y="504" fill="#3f3d56" rx=".5" transform="rotate(-180 405 439)"/><rect width="4.2" height="2.5" x="486.2" y="504" fill="#3f3d56" rx=".5" transform="rotate(-180 397 439)"/><rect width="4.2" height="2.5" x="477.8" y="504" fill="#3f3d56" rx=".5" transform="rotate(-180 388 439)"/><rect width="4.2" height="2.5" x="469.4" y="504" fill="#3f3d56" rx=".5" transform="rotate(-180 380 439)"/><rect width="4.2" height="2.5" x="461" y="504" fill="#3f3d56" rx=".5" transform="rotate(-180 371 439)"/><rect width="4.2" height="2.5" x="452.7" y="504" fill="#3f3d56" rx=".5" transform="rotate(-180 363 439)"/><rect width="4.2" height="2.5" x="444.3" y="504" fill="#3f3d56" rx=".5" transform="rotate(-180 355 439)"/><rect width="33.5" height="2.5" x="500.4" y="509" fill="#3f3d56" rx=".5" transform="rotate(-180 425 444)"/></svg>